# xmcd
#
# Track frame offsets:
# 150
# 21023
# 41863
# 63124
# 86007
# 107605
# 125543
# 148387
# 164442
# 180703
# 203494
#
# Disc length: 2985 seconds
#
#
# Revision: 0
# Processed by: cddbd v1.5.2PL0 Copyright (c) Steve Scherf et al.
# Submitted via: FreeRIP 2.951 
#
DISCID=970ba70b
DTITLE=Cristian Castro - Mi Vida Sin Tu Amor
DYEAR=1999
DGENRE=Latin
TTITLE0=Veronica
TTITLE1=Vivir Sin Ti
TTITLE2=Volver A Amar
TTITLE3=Si Me Ves Llorar Por Ti
TTITLE4=Tu sombra En Mi
TTITLE5=Alguna Vez
TTITLE6=Angel
TTITLE7=Mas Y Mas
TTITLE8=Mi Vida Sin Tu Amor
TTITLE9=Nunca Voy A Olvidarte
TTITLE10=Por Amarte Asi
EXTD=
EXTT0=
EXTT1=
EXTT2=
EXTT3=
EXTT4=
EXTT5=
EXTT6=
EXTT7=
EXTT8=
EXTT9=
EXTT10=
PLAYORDER=
